<svg xmlns="http://www.w3.org/2000/svg" viewBox="0 0 784.96 193.37"><defs><style>.cls-1{fill:#ffbc00;}</style></defs><g id="Camada_2" data-name="Camada 2"><g id="Camada_1-2" data-name="Camada 1"><path class="cls-1" d="M244,14.82c20,0,27.12,8.84,27.69,19.11,1,18.59-18.76,29.22-34.18,18V51c-.1-.12,9.22-.32,12-11.85a21.5,21.5,0,0,0,.6-6c-.3-8.12-4.81-13.34-12.51-13.34h-3.54V77.7a6.43,6.43,0,0,0,6.42,6.3h1.27l0,1h-36l0-1h1.27a6.42,6.42,0,0,0,6.42-6.3V21.59c0-3.25-3.06-5.78-6.4-5.78h-1.26v-1Z"/><path class="cls-1" d="M361.48,49.91c0,22.94-15.78,36.49-41.65,36.49s-41.65-13.55-41.65-36.49,15.78-36.5,41.65-36.5S361.48,27,361.48,49.91Zm-22.12,0c0-19.79-7.26-31.49-19.53-31.49S300.3,30.12,300.3,49.91s7.26,31.49,19.53,31.49S339.36,69.7,339.36,49.91Z"/><path class="cls-1" d="M449.76,14.81v1H447.9a6.19,6.19,0,0,0-6.19,6v51.8A50.72,50.72,0,0,0,443,86.41h-.91L394.05,43.7V77.92A6.19,6.19,0,0,0,400.24,84h1.85v1H365.41V84h1.85a6.18,6.18,0,0,0,6.19-6.07V25.84a50.68,50.68,0,0,0-1.32-12.53h1l48,42.69V21.89a6.18,6.18,0,0,0-6.19-6.07h-1.85v-1Z"/><path class="cls-1" d="M509,14.71c4.31-.06,10-1,11.8-1.82V33.52h-1v-.79c0-8-4.76-12.83-12.87-13h-9.85V77.78A6.43,6.43,0,0,0,503.48,84h1.27l0,1h-36l0-1h1.27a6.42,6.42,0,0,0,6.41-6.14V19.73h-9.86c-8.11.16-12.88,5-12.86,13v.79h-1V12.89c1.84.78,7.5,1.76,11.8,1.82Z"/><path class="cls-1" d="M608.55,49.91c0,22.94-15.79,36.49-41.66,36.49s-41.65-13.55-41.65-36.49,15.78-36.5,41.65-36.5S608.55,27,608.55,49.91Zm-22.13,0c0-19.79-7.25-31.49-19.53-31.49s-19.53,11.7-19.53,31.49,7.26,31.49,19.53,31.49S586.42,69.7,586.42,49.91Z"/><path class="cls-1" d="M244.68,99.88c25.16,0,40,13.05,40,35.12s-14.86,35.06-40,35.06h-38v-1H208a6.42,6.42,0,0,0,6.42-6.29V106.6c0-3.22-3.07-5.73-6.38-5.73h-1.27l0-1ZM235,165h7.67c12.56,0,20-11.14,20-30s-7.41-30.1-20-30.1H235Z"/><path class="cls-1" d="M376,135c0,22.94-15.78,36.5-41.65,36.5S292.65,157.9,292.65,135s15.79-36.49,41.66-36.49S376,112,376,135Zm-22.12,0c0-19.8-7.26-31.5-19.53-31.5s-19.53,11.7-19.53,31.5,7.25,31.48,19.53,31.48S353.84,154.76,353.84,135Z"/><path class="cls-1" d="M460.62,99.87v1H459a5.12,5.12,0,0,0-5.3,4.74v38.65c0,17-10.81,27.2-30,27.2-24.57,0-35.83-10.18-35.83-27V105.84a5.11,5.11,0,0,0-5.3-5h-1.64v-1h34.4v1h-1.63a5.1,5.1,0,0,0-5.29,4.82V144c0,14,6.79,22.34,18.29,22.34S445,158.48,445,145.25V105.7a5.1,5.1,0,0,0-5.29-4.83h-1.64v-1Z"/><path class="cls-1" d="M503.79,99.87c12.16,0,26.6,3.5,26.6,18.95,0,7.62-3.51,17.14-16,19,5.58,1.64,9.79,6,12.2,10.06.5.81,4.81,8.53,8.52,13.54,4.52,6.22,6.82,7.52,11.62,7.62v1H534.2c-12,0-21.36-1-27.47-11.43-3.61-6.11-3.91-11.83-5.22-16.14-1.4-4.81-3.3-6-5.22-6.75v-.95h1.61c5.52,0,9.63-3.73,10.73-12.35a23.33,23.33,0,0,0,.2-4.12c-.5-9.92-5.41-13.23-11.43-13.23H493v57.67a6.44,6.44,0,0,0,6.46,6.3h1.23l0,1h-36l0-1h1.26a6.42,6.42,0,0,0,6.42-6.26V107.16a6.4,6.4,0,0,0-6.4-6.29h-1.29l0-1Z"/><path class="cls-1" d="M607.52,163.52c2.23,3.9,5.5,5.53,8.39,5.53h.84v1h-38v-1h.88c2.59,0,5.49-2.28,3.88-6.29l-3.91-9.36h-21.4l-4,9.36c-1.76,4,1.26,6.29,3.85,6.29h.88v1H536.51v-1h.9c2.81,0,6.16-1.6,8.32-5.41l23.4-51.22c1.18-2.51,5.32-11.57,5.72-15h.9Zm-30-15.12-8.38-20.05-8.75,20.05Z"/><path class="cls-1" d="M653.67,99.88c25.16,0,40,13.05,40,35.12s-14.86,35.06-40,35.06H615.72v-1H617a6.44,6.44,0,0,0,6.43-6.29V106.6c0-3.22-3.08-5.73-6.39-5.73h-1.27l0-1ZM644,165h7.68c12.55,0,20-11.14,20-30s-7.42-30.1-20-30.1H644Z"/><path class="cls-1" d="M785,135c0,22.94-15.79,36.5-41.66,36.5S701.65,157.9,701.65,135s15.78-36.49,41.65-36.49S785,112,785,135Zm-22.13,0c0-19.8-7.25-31.5-19.53-31.5s-19.53,11.7-19.53,31.5,7.26,31.48,19.53,31.48S762.83,154.76,762.83,135Z"/><path class="cls-1" d="M45.79,125.6c2.64-3.47,5.77-7.42,8.73-11.5,4.53-6.25,9.76-11.66,16.58-15.49,4.29-2.41,8.34-5.22,12.69-7.64-.65.73-1.35,1.42-1.93,2.19-2.5,3.29-5,6.57-7.43,9.9a42.86,42.86,0,0,1-11,10.82C57.36,117.92,51.26,122,45.79,125.6Z"/><path class="cls-1" d="M126.83,124.94c-4-2.79-8-5.72-12.16-8.59-2.72-1.9-5.76-3.43-8.16-5.67a93.21,93.21,0,0,1-9.2-10.15c-2.55-3.21-4.68-6.75-7.07-10.25.4.25.75.46,1.09.69,4.36,2.84,8.61,5.87,13.1,8.5,6.27,3.67,10.67,9.1,14.8,14.85C121.8,117.9,124.36,121.49,126.83,124.94Z"/><path class="cls-1" d="M47.85,51.74c1.54,1.13,3,2.33,4.63,3.38,4.11,2.72,8.23,5.42,12.4,8a34.47,34.47,0,0,1,9.25,8.64c3.19,4.23,6.24,8.56,9.12,13C79.84,82.55,76.45,80.25,73,78c-2.48-1.63-5.06-3.13-7.5-4.82C61.65,70.5,58.76,66.87,56,63.1S50.48,55.66,47.71,52Z"/><path class="cls-1" d="M49.24,84a55.4,55.4,0,0,1,19.8.75c4.47.92,9,1.4,13.08,2-5,.81-10.46,1.63-15.92,2.61-4,.72-8,1.52-12.11.93-5.83-.83-11.65-1.83-17.47-2.76l-4.81-.8"/><path class="cls-1" d="M86.45,35.55c1.24,7.1,3.26,14.16,3.84,21.31.36,4.51-1,9.17-1.62,13.76C88.17,74.07,87.55,77.51,87,81c-.07.37-.15.74-.29,1.41-1.18-6.64-2.43-12.93-3.4-19.27-1-6.75.16-13.36,1.66-19.92"/><path class="cls-1" d="M86.45,135.37c-1-7.58-3.34-15.15-3.34-22.73,0-6.81,2-13.63,3.5-20.46a3.62,3.62,0,0,1,.22.63c1,5.17,1.94,10.34,3,15.5,1.19,6,0,11.74-1.17,17.52"/><path class="cls-1" d="M90,84.24c2.53-3.33,5.54-7.13,8.39-11,4.35-6,9.37-11.2,15.93-14.87,4.11-2.31,8-5,12.18-7.34-.62.7-1.29,1.36-1.86,2.1-2.4,3.16-4.8,6.31-7.13,9.52A41.27,41.27,0,0,1,106.93,73Z"/><path class="cls-1" d="M123.51,84a55.4,55.4,0,0,0-19.8.75c-4.46.92-9,1.4-13.07,2,5,.81,10.46,1.63,15.92,2.61,4,.72,8,1.52,12.1.93,5.84-.83,11.65-1.83,17.48-2.76l4.81-.8"/><path class="cls-1" d="M86.38,0A86.38,86.38,0,0,0,64.91,170.05,41.63,41.63,0,0,1,69.45,162a77.51,77.51,0,1,1,33.86,0,41.63,41.63,0,0,1,4.54,8.05A86.38,86.38,0,0,0,86.38,0Z"/><path class="cls-1" d="M86.38,15.05A71.1,71.1,0,0,0,74,156.17c2.13-2.49,4.27-4.73,6.06-6.51a63.81,63.81,0,1,1,12.64,0c1.79,1.78,3.92,4,6.06,6.51A71.1,71.1,0,0,0,86.38,15.05Z"/><path class="cls-1" d="M103.43,176.32a17.05,17.05,0,0,1-34.1,0c0-9.41,17-24.52,17-24.52S103.43,166.91,103.43,176.32Z"/></g></g></svg>